<svg xmlns="http://www.w3.org/2000/svg" version="1.1" xmlns:xlink="http://www.w3.org/1999/xlink" xmlns:svgjs="http://svgjs.dev/svgjs" width="1000" height="540" viewBox="0 0 1000 540"><g transform="matrix(1,0,0,1,-0.6060606060606233,0.1594103075494786)"><svg viewBox="0 0 396 214" data-background-color="#dedede" preserveAspectRatio="xMidYMid meet" height="540" width="1000" xmlns="http://www.w3.org/2000/svg" xmlns:xlink="http://www.w3.org/1999/xlink"><g id="tight-bounds" transform="matrix(1,0,0,1,0.2400000000000091,-0.0631737144733222)"><svg viewBox="0 0 395.52 214.1263448275862" height="214.1263448275862" width="395.52"><g><svg viewBox="0 0 395.52 214.1263448275862" height="214.1263448275862" width="395.52"><g><svg viewBox="0 0 395.52 214.1263448275862" height="214.1263448275862" width="395.52"><g id="textblocktransform"><svg viewBox="0 0 395.52 214.1263448275862" height="214.1263448275862" width="395.52" id="textblock"><g><svg viewBox="0 0 395.52 214.1263448275862" height="214.1263448275862" width="395.52"><g transform="matrix(1,0,0,1,0,0)"><svg width="395.52" viewBox="1 -47 113.69000244140625 62.79999923706055" height="214.1263448275862" data-palette-color="#ffffff"><path d="M43.4-32Q43.4-27.75 40.4-24.68 37.4-21.6 31.65-20.25L31.65-20.25Q34.75-19.4 36.35-17.48 37.95-15.55 37.95-13.05L37.95-13.05Q37.95-9.1 35.48-6.2 33-3.3 28.25-1.73 23.5-0.15 16.8-0.15L16.8-0.15Q14.3-0.15 12.8-0.3L12.8-0.3Q12.75 1.1 11.6 1.8 10.45 2.5 8.65 2.5L8.65 2.5Q6.85 2.5 6.18 1.7 5.5 0.9 5.6-0.65L5.6-0.65Q6.05-7.65 7.35-15.33 8.65-23 10.65-30.15L10.65-30.15Q11-31.4 12.05-31.9 13.1-32.4 14.8-32.4L14.8-32.4Q17.85-32.4 17.85-30.7L17.85-30.7Q17.85-30 17.55-29.1L17.55-29.1Q16.25-25.2 14.95-18.53 13.65-11.85 13.1-5.8L13.1-5.8Q15.5-5.6 17-5.6L17-5.6Q24-5.6 27.28-7.63 30.55-9.65 30.55-12.8L30.55-12.8Q30.55-15 28.68-16.5 26.8-18 22.4-18.15L22.4-18.15Q21.4-18.2 21-18.65 20.6-19.1 20.6-20.1L20.6-20.1Q20.6-21.55 21.2-22.45 21.8-23.35 23.4-23.4L23.4-23.4Q26.95-23.5 29.83-24.45 32.7-25.4 34.35-27.13 36-28.85 36-31.15L36-31.15Q36-34.05 33.15-35.73 30.3-37.4 24.4-37.4L24.4-37.4Q19.05-37.4 14.05-36.02 9.05-34.65 5.55-32.55L5.55-32.55Q3.95-31.6 2.85-31.6L2.85-31.6Q1.95-31.6 1.48-32.23 1-32.85 1-33.8L1-33.8Q1-35.05 1.53-35.95 2.05-36.85 4.05-38L4.05-38Q8.25-40.4 13.9-41.75 19.55-43.1 25.45-43.1L25.45-43.1Q34.5-43.1 38.95-40.05 43.4-37 43.4-32L43.4-32ZM64.3-11.15Q64.95-11.15 65.32-10.55 65.7-9.95 65.7-8.9L65.7-8.9Q65.7-6.9 64.75-5.8L64.75-5.8Q62.9-3.55 59.52-1.65 56.15 0.25 52.3 0.25L52.3 0.25Q47.05 0.25 44.15-2.6 41.25-5.45 41.25-10.4L41.25-10.4Q41.25-13.85 42.7-16.82 44.15-19.8 46.72-21.55 49.3-23.3 52.55-23.3L52.55-23.3Q55.45-23.3 57.2-21.58 58.95-19.85 58.95-16.9L58.95-16.9Q58.95-13.45 56.47-10.98 54-8.5 48.1-7.05L48.1-7.05Q49.35-4.75 52.85-4.75L52.85-4.75Q55.1-4.75 57.97-6.33 60.85-7.9 62.95-10.45L62.95-10.45Q63.55-11.15 64.3-11.15L64.3-11.15ZM51.7-18.4Q49.85-18.4 48.57-16.25 47.3-14.1 47.3-11.05L47.3-11.05 47.3-10.95Q50.25-11.65 51.95-13.05 53.65-14.45 53.65-16.3L53.65-16.3Q53.65-17.25 53.12-17.82 52.6-18.4 51.7-18.4L51.7-18.4ZM81.09-14Q82.5-14 82.5-11.9L82.5-11.9Q82.5-7.95 76.3-7.95L76.3-7.95Q75.09-7.95 72.84-8.4L72.84-8.4Q73.5-5.3 73.92-1.53 74.34 2.25 74.34 4.7L74.34 4.7Q74.34 10.1 72.59 12.95 70.84 15.8 68 15.8L68 15.8Q64.4 15.8 62.87 10.7 61.35 5.6 61.35-4.7L61.35-4.7Q61.35-14.3 63.42-24.18 65.5-34.05 69.12-40.53 72.75-47 77.09-47L77.09-47Q79.45-47 80.77-44.9 82.09-42.8 82.09-39.25L82.09-39.25Q82.09-27.5 68.05-13.65L68.05-13.65Q67.55-8.75 67.55-5.05L67.55-5.05Q67.55 0.1 67.9 5.53 68.25 10.95 69.05 10.95L69.05 10.95Q70.55 10.95 70.55 5.75L70.55 5.75Q70.55 1.85 70.02-1.8 69.5-5.45 68.59-9.5L68.59-9.5Q68.55-10.15 69.02-11.15 69.5-12.15 70.2-12.9 70.9-13.65 71.45-13.65L71.45-13.65Q72.45-13.65 73.84-13.55L73.84-13.55Q74.3-13.5 74.9-13.5L74.9-13.5Q76.9-13.5 79.34-13.85L79.34-13.85Q79.75-13.9 80.2-13.95 80.65-14 81.09-14L81.09-14ZM76.05-42.05Q75.15-42.05 73.82-39 72.5-35.95 71.2-30.93 69.9-25.9 68.95-20.3L68.95-20.3Q72.95-24.85 75.09-29.78 77.25-34.7 77.3-39L77.3-39Q77.3-42.05 76.05-42.05L76.05-42.05ZM85.24-26.6Q83.14-26.6 82.09-27.58 81.04-28.55 81.04-30.3L81.04-30.3Q81.04-32.05 82.42-33.23 83.79-34.4 85.84-34.4L85.84-34.4Q87.69-34.4 88.84-33.5 89.99-32.6 89.99-30.95L89.99-30.95Q89.99-28.95 88.69-27.78 87.39-26.6 85.24-26.6L85.24-26.6ZM84.84 0.25Q81.59 0.25 80.12-2.05 78.64-4.35 78.64-8.15L78.64-8.15Q78.64-10.4 79.22-13.93 79.79-17.45 80.69-20.5L80.69-20.5Q81.14-22.1 81.89-22.7 82.64-23.3 84.29-23.3L84.29-23.3Q86.84-23.3 86.84-21.6L86.84-21.6Q86.84-20.35 85.89-15.8L85.89-15.8Q84.69-10.3 84.69-8.35L84.69-8.35Q84.69-6.85 85.09-6.05 85.49-5.25 86.44-5.25L86.44-5.25Q87.34-5.25 88.69-6.5 90.04-7.75 92.29-10.45L92.29-10.45Q92.89-11.15 93.64-11.15L93.64-11.15Q94.29-11.15 94.67-10.55 95.04-9.95 95.04-8.9L95.04-8.9Q95.04-6.9 94.09-5.8L94.09-5.8Q89.14 0.25 84.84 0.25L84.84 0.25ZM113.29-11.15Q113.94-11.15 114.31-10.55 114.69-9.95 114.69-8.9L114.69-8.9Q114.69-6.9 113.74-5.8L113.74-5.8Q111.59-3.15 109.04-1.45 106.49 0.25 103.19 0.25L103.19 0.25Q92.99 0.25 92.99-14.1L92.99-14.1Q92.99-16.3 93.14-18.55L93.14-18.55 91.19-18.55Q89.69-18.55 89.17-19.1 88.64-19.65 88.64-20.85L88.64-20.85Q88.64-23.65 90.89-23.65L90.89-23.65 93.74-23.65Q94.59-29.15 96.34-33.7 98.09-38.25 100.56-40.95 103.04-43.65 105.89-43.65L105.89-43.65Q107.99-43.65 109.19-41.8 110.39-39.95 110.39-37.15L110.39-37.15Q110.39-29.4 103.89-23.65L103.89-23.65 109.49-23.65Q110.29-23.65 110.64-23.3 110.99-22.95 110.99-22L110.99-22Q110.99-18.55 105.34-18.55L105.34-18.55 99.24-18.55Q99.14-16.05 99.14-14.65L99.14-14.65Q99.14-9.45 100.37-7.35 101.59-5.25 104.24-5.25L104.24-5.25Q106.39-5.25 108.04-6.55 109.69-7.85 111.94-10.45L111.94-10.45Q112.54-11.15 113.29-11.15L113.29-11.15ZM104.54-38.85Q103.79-38.85 102.87-36.98 101.94-35.1 101.12-31.78 100.29-28.45 99.74-24.4L99.74-24.4Q102.69-26.95 104.17-30.13 105.64-33.3 105.64-35.9L105.64-35.9Q105.64-38.85 104.54-38.85L104.54-38.85Z" opacity="1" transform="matrix(1,0,0,1,0,0)" fill="#ffffff" class="wordmark-text-0" data-fill-palette-color="primary" id="text-0"></path></svg></g></svg></g></svg></g></svg></g></svg></g><defs></defs></svg><rect width="395.52" height="214.1263448275862" fill="none" stroke="none" visibility="hidden"></rect></g></svg></g></svg>